<svg xmlns="http://www.w3.org/2000/svg" viewBox="0 0 512 512" role="img" aria-labelledby="title desc">
  <title id="title">Avatar neutral de estudiante AYNI Twin</title>
  <desc id="desc">Figura humana abstracta sin género acompañada por tres trayectorias de aprendizaje.</desc>
  <defs>
    <clipPath id="avatar-circle">
      <circle cx="256" cy="256" r="244"/>
    </clipPath>
  </defs>

  <g clip-path="url(#avatar-circle)">
    <rect width="512" height="512" fill="#F5F7F2"/>
    <path d="M-24 348C94 291 139 319 214 256S363 151 548 205" fill="none" stroke="#D7EAE6" stroke-width="58" stroke-linecap="round"/>
    <path d="M-18 424C116 364 186 394 259 337S399 263 544 298" fill="none" stroke="#F3E2D4" stroke-width="42" stroke-linecap="round"/>

    <path d="M99 361C159 340 181 297 201 253" fill="none" stroke="#245B78" stroke-width="10" stroke-linecap="round"/>
    <path d="M201 253C246 206 316 193 398 147" fill="none" stroke="#177E78" stroke-width="10" stroke-linecap="round"/>
    <path d="M201 253C274 247 330 257 417 238" fill="none" stroke="#D58B32" stroke-width="10" stroke-linecap="round"/>
    <path d="M201 253C252 288 320 311 404 340" fill="none" stroke="#4E8C63" stroke-width="10" stroke-linecap="round"/>

    <circle cx="99" cy="361" r="15" fill="#245B78"/>
    <circle cx="398" cy="147" r="16" fill="#177E78"/>
    <circle cx="417" cy="238" r="16" fill="#D58B32"/>
    <circle cx="404" cy="340" r="16" fill="#4E8C63"/>

    <circle cx="208" cy="196" r="54" fill="#17324D"/>
    <path d="M111 418C111 323 150 268 208 268S305 323 305 418Z" fill="#17324D"/>
    <path d="M143 418C148 351 166 316 208 316S268 351 273 418Z" fill="#177E78" opacity="0.96"/>
    <circle cx="208" cy="253" r="15" fill="#F5F7F2"/>
  </g>

  <circle cx="256" cy="256" r="244" fill="none" stroke="#D8E2DE" stroke-width="8"/>
</svg>
